<?xml version="1.0" encoding="utf-8"?>
<!-- Generator: Adobe Illustrator 18.1.1, SVG Export Plug-In . SVG Version: 6.00 Build 0)  -->
<svg version="1.1" id="Layer_1" xmlns="http://www.w3.org/2000/svg" xmlns:xlink="http://www.w3.org/1999/xlink" x="0px" y="0px"
	 viewBox="0 0 2880 537" enable-background="new 0 0 2880 537" xml:space="preserve">
<g>
	<path fill="#FFFFFF" d="M324.9,321.4c9.6,0,19.3-3.2,32.2-12.9s25.7-25.7,38.6-41.8c12.9-16.1,25.7-35.4,35.4-57.9
		c12.9-22.5,22.5-41.8,32.2-64.3s16.1-41.8,19.3-57.9c6.4-19.3,6.4-32.2,6.4-41.8c0-6.4,0-9.6,0-12.9c3.2-3.2,3.2-3.2,6.4-3.2
		s3.2,0,6.4,3.2s3.2,6.4,3.2,9.6c3.2,12.9,0,32.2-6.4,54.7s-16.1,48.2-25.7,73.9c-12.9,25.7-25.7,51.4-38.6,77.2s-28.9,48.2-45,70.7
		c-16.1,19.3-32.2,38.6-48.2,51.4s-28.9,19.3-41.8,16.1c-12.9,0-19.3-9.6-25.7-22.5c-3.2-12.9-6.4-32.2,0-54.7
		c-6.4,9.6-12.9,19.3-22.5,28.9c-6.4,9.6-16.1,19.3-22.5,25.7c-6.4,6.4-16.1,12.9-22.5,16.1c-6.4,3.2-16.1,6.4-22.5,3.2
		c-9.6,0-16.1-6.4-22.5-12.9c-6.4-9.6-9.6-19.3-9.6-32.2s0-28.9,3.2-48.2c3.2-19.3,9.6-38.6,19.3-61.1c3.2-6.4,6.4-16.1,9.6-22.5
		c3.2-6.4,6.4-16.1,9.6-22.5c-16.1,16.1-32.2,28.9-51.4,41.8C122.3,237.8,103,241,80.5,241c-16.1,0-32.2-3.2-41.8-12.9
		c-9.6-9.6-16.1-19.3-16.1-35.4c-3.2-12.9,0-28.9,6.4-45s16.1-28.9,32.2-45C77.3,89.9,96.6,77,122.3,70.6
		C148,61,177,57.7,209.1,57.7c12.9,0,25.7,0,35.4,0c9.6,0,19.3,0,28.9,0c6.4-6.4,12.9-12.9,19.3-16.1s12.9-6.4,19.3-9.6
		c9.6,0,19.3,0,22.5,6.4s6.4,9.6,3.2,16.1s-6.4,9.6-12.9,12.9c-6.4,3.2-19.3,3.2-35.4,6.4c-16.1,9.6-28.9,28.9-41.8,54.7
		c-12.9,25.7-25.7,51.4-38.6,80.4c-16.1,38.6-22.5,67.5-22.5,90c0,22.5,6.4,35.4,19.3,38.6c6.4,0,9.6,0,16.1-3.2s12.9-9.6,19.3-16.1
		s12.9-12.9,19.3-22.5c6.4-6.4,9.6-16.1,16.1-22.5c3.2-12.9,9.6-28.9,16.1-45c3.2-6.4,6.4-16.1,9.6-25.7c3.2-9.6,9.6-22.5,16.1-32.2
		c6.4-12.9,12.9-25.7,19.3-38.6c6.4-12.9,12.9-25.7,19.3-38.6c6.4-12.9,9.6-22.5,16.1-32.2s9.6-16.1,12.9-22.5
		c3.2-3.2,3.2-6.4,6.4-6.4s6.4-3.2,6.4-3.2c3.2,0,3.2,0,3.2,3.2s0,6.4-3.2,9.6c-3.2,6.4-9.6,16.1-16.1,28.9
		c-6.4,16.1-16.1,28.9-22.5,48.2c-6.4,16.1-16.1,32.2-22.5,48.2s-12.9,25.7-16.1,35.4c-16.1,38.6-22.5,67.5-19.3,86.8
		S312,321.4,324.9,321.4z M99.8,212.1c12.9,0,22.5-3.2,35.4-9.6c12.9-6.4,22.5-12.9,35.4-22.5c9.6-9.6,22.5-19.3,28.9-32.2
		c9.6-9.6,16.1-22.5,25.7-32.2c12.9-19.3,22.5-35.4,35.4-48.2h-51.4c-19.3,0-38.6,3.2-54.7,9.6c-16.1,6.4-32.2,16.1-45,25.7
		S87,125.3,80.5,138.1c-6.4,12.9-12.9,22.5-12.9,35.4c0,9.6,0,19.3,6.4,25.7C80.5,208.9,87,212.1,99.8,212.1z"/>
	<path fill="#FFFFFF" d="M582.1,160.6c12.9,0,22.5,6.4,25.7,16.1l0,0c3.2-6.4,6.4-9.6,9.6-9.6c6.4-3.2,9.6-3.2,16.1-3.2
		s9.6,0,12.9,3.2c3.2,3.2,3.2,6.4,3.2,9.6c-3.2,6.4-6.4,12.9-9.6,25.7c-3.2,12.9-9.6,22.5-12.9,38.6c-3.2,12.9-9.6,25.7-12.9,38.6
		c-3.2,12.9-6.4,22.5-9.6,28.9c-3.2,6.4-3.2,12.9-6.4,16.1c0,6.4-3.2,9.6-3.2,12.9s0,6.4,3.2,9.6c0,3.2,3.2,3.2,9.6,3.2
		c9.6,0,19.3-6.4,28.9-16.1s19.3-22.5,28.9-38.6c6.4-6.4,9.6-9.6,12.9-9.6s3.2,6.4,0,12.9c-3.2,9.6-9.6,19.3-19.3,28.9
		c-6.4,9.6-16.1,19.3-25.7,28.9c-9.6,9.6-19.3,16.1-28.9,19.3c-9.6,6.4-19.3,6.4-28.9,6.4c-9.6,0-19.3-3.2-19.3-9.6
		c-3.2-6.4-3.2-16.1,0-25.7c-12.9,12.9-22.5,22.5-35.4,28.9c-12.9,6.4-22.5,9.6-32.2,9.6s-16.1-3.2-22.5-9.6
		c-6.4-6.4-9.6-12.9-9.6-22.5c-3.2-9.6,0-22.5,0-35.4c3.2-12.9,6.4-28.9,12.9-41.8c6.4-16.1,16.1-28.9,22.5-41.8
		c9.6-12.9,19.3-25.7,28.9-35.4c9.6-9.6,22.5-19.3,32.2-22.5C562.8,163.9,572.5,160.6,582.1,160.6z M562.8,308.5
		c6.4-22.5,16.1-41.8,22.5-64.3c6.4-19.3,12.9-38.6,16.1-51.4c-3.2-9.6-9.6-16.1-19.3-16.1c-6.4,0-12.9,3.2-19.3,6.4
		s-12.9,9.6-22.5,16.1s-12.9,16.1-19.3,25.7c-6.4,9.6-12.9,19.3-16.1,32.2c-9.6,22.5-12.9,41.8-9.6,61.1
		c3.2,16.1,9.6,25.7,22.5,25.7c6.4,0,12.9-3.2,22.5-6.4c6.4-6.4,16.1-12.9,22.5-22.5L562.8,308.5z"/>
	<path fill="#FFFFFF" d="M733.2,167.1c3.2-3.2,9.6-6.4,12.9-6.4c6.4,0,9.6,0,16.1,0c3.2,0,6.4,3.2,9.6,3.2c0,0,0,3.2-3.2,6.4
		c-6.4,3.2-9.6,6.4-9.6,12.9c0,3.2,0,9.6,0,16.1s3.2,12.9,6.4,22.5c3.2,9.6,6.4,16.1,9.6,25.7c6.4,16.1,6.4,35.4,6.4,51.4
		s-3.2,32.2-12.9,45c16.1-12.9,32.2-28.9,48.2-54.7c6.4-6.4,9.6-9.6,12.9-9.6s3.2,6.4,0,12.9c-3.2,3.2-6.4,9.6-9.6,16.1
		c-6.4,6.4-12.9,16.1-19.3,22.5c-9.6,9.6-19.3,16.1-32.2,22.5s-25.7,12.9-41.8,16.1c-9.6,3.2-19.3,3.2-28.9,3.2
		c-12.9,0-25.7-3.2-32.2-9.6c-9.6-6.4-12.9-12.9-16.1-22.5c-3.2-9.6-3.2-19.3-3.2-28.9s3.2-19.3,9.6-28.9
		c3.2-9.6,9.6-16.1,19.3-22.5c6.4-6.4,16.1-9.6,28.9-9.6c6.4,0,9.6,3.2,12.9,6.4c3.2,3.2,3.2,9.6,3.2,16.1s0,9.6,0,12.9
		s-3.2,6.4-6.4,6.4c-12.9,0-19.3,3.2-28.9,9.6c-6.4,6.4-9.6,16.1-12.9,22.5c0,9.6,0,16.1,3.2,22.5s12.9,9.6,22.5,9.6
		c9.6,0,16.1-3.2,22.5-9.6c6.4-6.4,9.6-16.1,12.9-25.7s3.2-22.5,3.2-35.4c0-12.9-3.2-25.7-6.4-38.6c-3.2-9.6-6.4-19.3-9.6-28.9
		c-3.2-9.6-3.2-16.1-6.4-22.5c0-6.4,0-12.9,3.2-19.3C720.4,176.7,726.8,170.3,733.2,167.1z"/>
	<path fill="#FFFFFF" d="M935.8,51.3c-3.2,9.6-6.4,19.3-12.9,35.4c-6.4,16.1-12.9,32.2-19.3,54.7c-6.4,19.3-12.9,41.8-22.5,61.1
		c-6.4,22.5-12.9,41.8-22.5,61.1c6.4-12.9,16.1-25.7,25.7-38.6c9.6-12.9,16.1-22.5,25.7-32.2s16.1-16.1,25.7-22.5s16.1-9.6,22.5-9.6
		c12.9,0,19.3,3.2,19.3,12.9s0,19.3-3.2,35.4c-3.2,12.9-9.6,28.9-16.1,45s-12.9,32.2-19.3,45s-9.6,25.7-9.6,35.4
		c0,9.6,3.2,12.9,9.6,12.9s16.1-6.4,28.9-16.1c9.6-9.6,22.5-22.5,28.9-38.6c3.2-6.4,9.6-9.6,12.9-9.6s3.2,6.4,0,12.9
		c-3.2,9.6-9.6,19.3-19.3,28.9c-6.4,9.6-16.1,19.3-25.7,28.9c-9.6,9.6-19.3,16.1-28.9,19.3c-9.6,6.4-19.3,6.4-28.9,6.4
		s-19.3-3.2-19.3-12.9c-3.2-9.6-3.2-19.3,0-32.2s6.4-25.7,12.9-41.8c6.4-16.1,12.9-28.9,16.1-41.8c6.4-12.9,9.6-22.5,9.6-32.2
		c3.2-9.6,0-12.9-3.2-12.9s-9.6,3.2-19.3,12.9c-9.6,9.6-16.1,22.5-28.9,35.4c-9.6,16.1-19.3,32.2-28.9,48.2
		c-9.6,19.3-16.1,35.4-22.5,51.4L820,360c0,3.2-3.2,3.2-3.2,3.2c-3.2,6.4-6.4,9.6-12.9,9.6c-6.4,3.2-9.6,3.2-16.1,3.2
		s-9.6,0-12.9-3.2s-3.2-6.4,0-9.6c0-3.2,3.2-12.9,9.6-28.9c6.4-16.1,12.9-35.4,19.3-54.7c6.4-22.5,16.1-45,22.5-70.7
		c9.6-25.7,16.1-48.2,22.5-70.7s12.9-41.8,19.3-57.9s9.6-25.7,9.6-28.9c0-6.4,3.2-9.6,9.6-12.9c6.4-3.2,9.6-3.2,16.1-3.2
		s9.6,0,12.9,3.2C935.8,41.7,939,44.9,935.8,51.3z"/>
	<path fill="#FFFFFF" d="M996.9,308.5c6.4-12.9,9.6-28.9,12.9-41.8c3.2-12.9,9.6-25.7,12.9-38.6c3.2-12.9,6.4-22.5,9.6-32.2
		c3.2-9.6,6.4-16.1,6.4-22.5s6.4-9.6,12.9-9.6c6.4-3.2,9.6-3.2,16.1-3.2s9.6,0,12.9,3.2c3.2,3.2,3.2,6.4,3.2,9.6
		c-3.2,6.4-3.2,12.9-9.6,25.7c-3.2,12.9-9.6,22.5-12.9,38.6c-3.2,12.9-9.6,25.7-12.9,38.6c-3.2,12.9-6.4,22.5-9.6,28.9
		c-3.2,6.4-3.2,12.9-3.2,16.1c0,6.4-3.2,9.6-3.2,12.9s0,6.4,3.2,9.6c0,3.2,3.2,3.2,9.6,3.2c6.4,0,16.1-6.4,28.9-16.1
		c9.6-9.6,22.5-22.5,28.9-38.6c3.2-6.4,9.6-9.6,12.9-9.6c3.2,0,3.2,6.4,0,12.9c-3.2,9.6-9.6,19.3-19.3,28.9
		c-6.4,9.6-16.1,19.3-25.7,28.9c-9.6,9.6-19.3,16.1-28.9,19.3c-9.6,6.4-19.3,6.4-28.9,6.4s-16.1-3.2-19.3-6.4
		c-3.2-3.2-6.4-9.6-6.4-19.3s0-16.1,3.2-22.5C993.6,324.6,993.6,315,996.9,308.5z M1106.2,122.1c0,6.4-3.2,12.9-6.4,16.1
		c-3.2,6.4-9.6,6.4-19.3,6.4c-6.4,0-12.9-3.2-16.1-6.4c-3.2-6.4-6.4-9.6-6.4-16.1s3.2-12.9,6.4-16.1c3.2-3.2,9.6-6.4,16.1-6.4
		s12.9,3.2,19.3,6.4C1103,109.2,1106.2,115.6,1106.2,122.1z"/>
	<path fill="#FFFFFF" d="M1148,263.5c6.4-12.9,16.1-25.7,25.7-38.6c9.6-12.9,16.1-22.5,25.7-32.2c9.6-9.6,16.1-16.1,25.7-22.5
		s16.1-9.6,22.5-9.6c12.9,0,19.3,3.2,19.3,12.9s0,19.3-3.2,35.4c-3.2,12.9-9.6,28.9-16.1,45s-12.9,32.2-19.3,45s-9.6,25.7-9.6,35.4
		c0,9.6,3.2,12.9,9.6,12.9c9.6,0,19.3-6.4,28.9-16.1c9.6-9.6,19.3-22.5,28.9-38.6c6.4-6.4,9.6-9.6,12.9-9.6c3.2,0,3.2,6.4,0,12.9
		c-3.2,9.6-9.6,19.3-19.3,28.9c-6.4,9.6-16.1,19.3-25.7,28.9c-9.6,9.6-19.3,16.1-28.9,19.3c-9.6,6.4-19.3,6.4-28.9,6.4
		c-9.6,0-19.3-3.2-19.3-12.9c-3.2-9.6-3.2-19.3,0-32.2c3.2-12.9,6.4-25.7,12.9-41.8c6.4-16.1,12.9-28.9,16.1-41.8
		c6.4-12.9,9.6-22.5,9.6-32.2c3.2-9.6,0-12.9-3.2-12.9c-3.2,0-9.6,3.2-19.3,12.9c-9.6,9.6-16.1,19.3-25.7,35.4
		c-9.6,16.1-19.3,28.9-28.9,48.2c-9.6,16.1-16.1,35.4-22.5,51.4l-3.2,6.4l0,0l-3.2,9.6c-3.2,6.4-6.4,9.6-9.6,9.6
		c-6.4,3.2-9.6,3.2-16.1,3.2s-9.6,0-12.9-3.2c-3.2-3.2-3.2-6.4,0-9.6c0-3.2,3.2-9.6,6.4-19.3c3.2-9.6,6.4-19.3,12.9-32.2
		s9.6-25.7,16.1-41.8c6.4-16.1,9.6-28.9,12.9-41.8c3.2-12.9,9.6-25.7,12.9-35.4c3.2-9.6,6.4-16.1,6.4-22.5c0-3.2,3.2-6.4,9.6-9.6
		c3.2-3.2,9.6-3.2,12.9-3.2c6.4,0,9.6,3.2,12.9,3.2c3.2,3.2,3.2,6.4,3.2,9.6L1148,263.5z"/>
	<path fill="#FFFFFF" d="M1492,270c6.4-6.4,12.9-6.4,12.9-3.2c3.2,3.2,0,6.4-6.4,12.9c-9.6,9.6-22.5,22.5-32.2,35.4
		c-12.9,12.9-22.5,28.9-35.4,41.8c-9.6,16.1-22.5,28.9-28.9,45c-9.6,16.1-16.1,32.2-22.5,45v3.2l-6.4,16.1
		c-3.2,9.6-3.2,12.9-3.2,12.9s3.2,0,9.6-3.2c6.4-3.2,12.9-3.2,12.9,0s-3.2,9.6-12.9,12.9c-3.2,0-9.6,3.2-16.1,6.4
		s-16.1,6.4-22.5,9.6c-6.4,3.2-12.9,3.2-19.3,3.2c-3.2,0-6.4-3.2-3.2-9.6c3.2-6.4,3.2-12.9,6.4-22.5c3.2-9.6,6.4-22.5,12.9-35.4
		c3.2-12.9,9.6-25.7,16.1-41.8s9.6-28.9,16.1-45c-9.6,9.6-19.3,16.1-28.9,22.5c-9.6,6.4-19.3,6.4-28.9,6.4c-9.6,0-16.1-3.2-22.5-9.6
		c-6.4-6.4-9.6-12.9-9.6-22.5c-3.2-9.6,0-22.5,0-35.4c3.2-12.9,6.4-28.9,12.9-41.8c6.4-16.1,16.1-28.9,22.5-41.8
		c9.6-12.9,19.3-25.7,28.9-35.4c9.6-9.6,22.5-19.3,32.2-22.5c9.6-6.4,19.3-9.6,28.9-9.6c9.6,0,19.3,3.2,25.7,12.9
		c3.2-3.2,6.4-6.4,12.9-9.6c6.4-3.2,9.6-3.2,16.1-3.2c3.2,0,9.6,0,12.9,3.2c3.2,3.2,3.2,6.4,3.2,9.6c0,3.2-3.2,9.6-6.4,22.5
		c-3.2,12.9-9.6,25.7-16.1,45s-12.9,38.6-22.5,57.9c-6.4,22.5-16.1,41.8-22.5,61.1c6.4-9.6,16.1-19.3,22.5-28.9s16.1-19.3,22.5-28.9
		s12.9-16.1,19.3-22.5C1482.4,276.4,1485.6,273.2,1492,270z M1344.1,343.9c6.4,0,9.6,0,19.3-3.2c6.4-3.2,12.9-9.6,19.3-16.1
		c9.6-28.9,19.3-54.7,28.9-80.4c9.6-25.7,16.1-41.8,19.3-54.7c-3.2-6.4-9.6-12.9-16.1-12.9s-12.9,3.2-19.3,6.4s-12.9,9.6-22.5,16.1
		c-9.6,6.4-12.9,16.1-19.3,25.7s-12.9,19.3-16.1,32.2c-9.6,22.5-12.9,41.8-9.6,61.1C1324.8,334.3,1334.5,343.9,1344.1,343.9z"/>
	<path fill="#FFFFFF" d="M1569.2,151c-3.2,12.9-9.6,28.9-16.1,45s-9.6,32.2-16.1,45c-3.2,16.1-9.6,28.9-12.9,38.6
		c-3.2,12.9-6.4,19.3-6.4,22.5c-3.2,6.4-3.2,12.9-6.4,16.1c0,6.4-3.2,9.6-3.2,12.9s0,6.4,3.2,9.6c0,3.2,3.2,3.2,6.4,3.2
		c9.6,0,19.3-6.4,28.9-16.1c9.6-9.6,22.5-22.5,28.9-38.6c3.2-6.4,9.6-9.6,12.9-9.6c3.2,0,3.2,6.4,0,12.9
		c-3.2,9.6-9.6,19.3-19.3,28.9c-6.4,9.6-16.1,19.3-25.7,28.9c-9.6,9.6-19.3,16.1-28.9,19.3c-9.6,6.4-19.3,6.4-28.9,6.4
		c-9.6,0-16.1-3.2-19.3-6.4c-3.2-3.2-6.4-9.6-6.4-19.3s0-16.1,3.2-22.5c3.2-9.6,6.4-16.1,6.4-22.5c3.2-9.6,9.6-22.5,12.9-38.6
		c3.2-12.9,9.6-28.9,12.9-41.8c3.2-16.1,9.6-28.9,12.9-41.8c3.2-12.9,9.6-25.7,12.9-35.4H1492c-3.2,0-3.2,0-3.2-3.2s0-3.2,0-6.4
		s3.2-3.2,3.2-6.4c3.2-3.2,3.2-3.2,6.4-3.2h25.7l3.2-6.4c3.2-6.4,6.4-9.6,9.6-12.9c6.4-3.2,9.6-6.4,16.1-9.6c6.4-3.2,9.6-3.2,12.9,0
		c3.2,0,3.2,3.2,3.2,9.6l-6.4,22.5h35.4c3.2,0,3.2,0,3.2,3.2s0,3.2,0,6.4s-3.2,3.2-3.2,6.4c-3.2,3.2-3.2,3.2-6.4,3.2L1569.2,151
		L1569.2,151z"/>
	<path fill="#FFFFFF" d="M1797.4,205.6c3.2-6.4,6.4-6.4,9.6-6.4c3.2,3.2,3.2,6.4,0,12.9c-3.2,3.2-6.4,6.4-12.9,9.6
		c-6.4,3.2-9.6,3.2-16.1,6.4c-6.4,0-12.9,0-19.3,0s-12.9,0-22.5-3.2c0,6.4,0,9.6-3.2,16.1c0,6.4-3.2,9.6-3.2,16.1
		c-3.2,16.1-9.6,28.9-16.1,45c-6.4,12.9-16.1,25.7-25.7,38.6c-9.6,9.6-19.3,19.3-28.9,28.9c-9.6,6.4-22.5,12.9-32.2,16.1
		c-9.6,3.2-19.3,0-28.9-3.2c-6.4-3.2-12.9-9.6-19.3-19.3c-3.2-9.6-6.4-19.3-6.4-32.2s0-25.7,6.4-41.8c3.2-16.1,9.6-28.9,16.1-45
		c6.4-12.9,16.1-25.7,25.7-38.6c9.6-9.6,19.3-19.3,28.9-28.9c9.6-6.4,22.5-12.9,32.2-16.1c16.1-3.2,28.9,0,35.4,9.6
		c9.6,9.6,16.1,22.5,16.1,38.6c6.4,3.2,9.6,3.2,16.1,3.2s12.9,0,19.3,0s9.6,0,16.1-3.2C1794.2,212.1,1797.4,208.9,1797.4,205.6z
		 M1717.1,247.4c0-6.4,3.2-9.6,3.2-16.1s0-9.6,0-12.9c-12.9-3.2-19.3-9.6-25.7-19.3c-6.4-6.4-6.4-16.1-3.2-22.5h-6.4
		c-6.4,0-12.9,3.2-19.3,9.6c-6.4,6.4-12.9,12.9-19.3,19.3s-12.9,16.1-16.1,25.7c-6.4,9.6-9.6,19.3-12.9,32.2
		c-3.2,9.6-3.2,19.3-3.2,28.9s3.2,16.1,3.2,22.5c3.2,6.4,6.4,12.9,12.9,12.9c6.4,3.2,9.6,3.2,19.3,3.2c6.4,0,12.9-3.2,19.3-9.6
		c6.4-6.4,12.9-12.9,19.3-19.3s12.9-16.1,16.1-25.7C1710.6,270,1713.8,257.1,1717.1,247.4z"/>
	<path fill="#FFFFFF" d="M1797.4,263.5c6.4-12.9,16.1-25.7,25.7-38.6c9.6-12.9,16.1-22.5,25.7-32.2c9.6-9.6,16.1-16.1,25.7-22.5
		c9.6-6.4,16.1-9.6,22.5-9.6c12.9,0,19.3,3.2,19.3,12.9s0,19.3-3.2,35.4c-3.2,12.9-9.6,28.9-16.1,45s-12.9,32.2-19.3,45
		s-9.6,25.7-9.6,35.4c0,9.6,3.2,12.9,9.6,12.9c9.6,0,19.3-6.4,28.9-16.1c9.6-9.6,19.3-22.5,28.9-38.6c6.4-6.4,9.6-9.6,12.9-9.6
		c3.2,0,3.2,6.4,0,12.9c-3.2,9.6-9.6,19.3-19.3,28.9c-6.4,9.6-16.1,19.3-25.7,28.9c-9.6,9.6-19.3,16.1-28.9,19.3
		c-9.6,6.4-19.3,6.4-28.9,6.4c-9.6,0-19.3-3.2-19.3-12.9c-3.2-9.6-3.2-19.3,0-32.2c3.2-12.9,6.4-25.7,12.9-41.8
		c6.4-16.1,12.9-28.9,16.1-41.8c6.4-12.9,9.6-22.5,9.6-32.2c3.2-9.6,0-12.9-3.2-12.9c-3.2,0-9.6,3.2-19.3,12.9
		c-9.6,9.6-16.1,19.3-25.7,35.4c-9.6,12.9-19.3,28.9-28.9,48.2c-9.6,16.1-16.1,35.4-22.5,51.4l-3.2,6.4l0,0l-3.2,9.6
		c-3.2,6.4-6.4,9.6-9.6,9.6c-6.4,3.2-9.6,3.2-16.1,3.2s-9.6,0-12.9-3.2c-3.2-3.2-3.2-6.4,0-9.6c0-3.2,3.2-9.6,6.4-19.3
		c3.2-9.6,6.4-19.3,12.9-32.2s9.6-25.7,16.1-41.8c6.4-16.1,9.6-28.9,12.9-41.8c3.2-12.9,9.6-25.7,12.9-35.4
		c3.2-9.6,6.4-16.1,6.4-22.5c0-3.2,3.2-6.4,9.6-9.6c3.2-3.2,9.6-3.2,12.9-3.2c6.4,0,9.6,3.2,12.9,3.2c3.2,3.2,3.2,6.4,3.2,9.6
		L1797.4,263.5z"/>
	<path fill="#FFFFFF" d="M1938.9,340.7c3.2-6.4,9.6-9.6,16.1-12.9s12.9,0,19.3,3.2c9.6,6.4,12.9,12.9,9.6,22.5
		c-3.2,9.6-6.4,19.3-12.9,25.7c-6.4,9.6-16.1,16.1-25.7,19.3c-9.6,6.4-19.3,6.4-28.9,3.2c9.6-6.4,16.1-12.9,19.3-19.3
		c3.2-6.4,3.2-9.6,3.2-16.1s-3.2-9.6-3.2-16.1C1935.7,350.3,1935.7,343.9,1938.9,340.7z"/>
	<path fill="#FFFFFF" d="M2340.8,382.5C2340.8,382.5,2337.6,382.5,2340.8,382.5c-3.2,0-3.2,0-3.2,0c-12.9,0-22.5-3.2-28.9-9.6
		c-6.4-6.4-12.9-9.6-16.1-19.3c-9.6,9.6-19.3,16.1-28.9,19.3c-9.6,6.4-22.5,6.4-35.4,6.4c-19.3,0-35.4-3.2-45-12.9
		c-9.6-9.6-16.1-19.3-16.1-32.2c-3.2-12.9,0-22.5,6.4-32.2c6.4-9.6,16.1-16.1,25.7-16.1s16.1,0,19.3,6.4c3.2,3.2,6.4,9.6,6.4,16.1
		s0,9.6,0,16.1c-3.2,6.4-3.2,6.4-6.4,6.4c-6.4,0-9.6,3.2-12.9,6.4c-3.2,3.2-3.2,9.6-3.2,12.9s3.2,9.6,6.4,12.9
		c3.2,3.2,9.6,6.4,19.3,6.4c12.9,0,22.5-6.4,32.2-19.3c9.6-12.9,19.3-28.9,28.9-51.4c9.6-22.5,19.3-45,28.9-70.7
		c9.6-25.7,19.3-51.4,28.9-73.9c-12.9,19.3-28.9,32.2-48.2,45c-19.3,12.9-38.6,19.3-61.1,19.3c-19.3,0-32.2-3.2-38.6-12.9
		c-6.4-9.6-12.9-22.5-9.6-35.4c0-12.9,6.4-28.9,19.3-45c9.6-16.1,25.7-32.2,48.2-45c19.3-12.9,45-25.7,77.2-35.4
		c28.9-9.6,64.3-16.1,106.1-16.1h3.2c19.3,0,35.4,6.4,45,16.1c12.9,9.6,19.3,22.5,25.7,38.6c6.4,16.1,6.4,35.4,6.4,54.7
		s-3.2,41.8-9.6,64.3c-6.4,22.5-12.9,41.8-22.5,64.3s-22.5,38.6-35.4,57.9c-12.9,16.1-28.9,28.9-45,41.8
		c-16.1,9.6-35.4,16.1-54.7,16.1l0,0L2340.8,382.5L2340.8,382.5z M2250.8,199.2c12.9,0,25.7-3.2,38.6-12.9
		c12.9-6.4,22.5-16.1,35.4-25.7c9.6-9.6,19.3-22.5,28.9-32.2c6.4-9.6,12.9-19.3,19.3-28.9c9.6-16.1,16.1-28.9,25.7-38.6
		c9.6-9.6,19.3-16.1,28.9-19.3c-22.5,0-45,6.4-67.5,12.9c-19.3,9.6-38.6,19.3-54.7,28.9c-16.1,12.9-28.9,22.5-41.8,38.6
		c-9.6,12.9-19.3,25.7-22.5,38.6c-6.4,12.9-6.4,19.3-3.2,28.9C2234.7,196,2241.1,199.2,2250.8,199.2z M2440.5,38.5
		c-3.2,0-9.6,3.2-12.9,12.9c-3.2,6.4-9.6,19.3-12.9,32.2c-6.4,12.9-9.6,28.9-16.1,45c-6.4,16.1-9.6,35.4-16.1,54.7
		c-6.4,19.3-12.9,38.6-22.5,57.9c-6.4,19.3-16.1,35.4-25.7,54.7c3.2,3.2,6.4,6.4,6.4,9.6s3.2,9.6,3.2,12.9s0,6.4-3.2,9.6
		c0,3.2-3.2,3.2-6.4,3.2c-6.4,0-9.6,3.2-12.9,6.4s-3.2,9.6-3.2,12.9s3.2,9.6,6.4,12.9c3.2,3.2,9.6,6.4,19.3,6.4l0,0
		c12.9,0,25.7-9.6,38.6-25.7c12.9-16.1,25.7-35.4,38.6-57.9c12.9-22.5,22.5-48.2,32.2-77.2c9.6-28.9,16.1-54.7,19.3-77.2
		c3.2-25.7,3.2-45-3.2-61.1C2466.2,51.3,2456.6,41.7,2440.5,38.5L2440.5,38.5z"/>
	<path fill="#FFFFFF" d="M2508,353.5c0-6.4,3.2-12.9,6.4-19.3c6.4-6.4,9.6-6.4,19.3-6.4c6.4,0,12.9,3.2,19.3,6.4
		c6.4,6.4,6.4,12.9,6.4,19.3s-3.2,12.9-6.4,19.3c-6.4,6.4-12.9,6.4-19.3,6.4c-6.4,0-12.9-3.2-19.3-6.4
		C2511.2,366.4,2508,360,2508,353.5z"/>
	<path fill="#FFFFFF" d="M2781.3,32c16.1-3.2,32.2-3.2,41.8,3.2c9.6,6.4,19.3,12.9,25.7,22.5c6.4,9.6,9.6,22.5,9.6,35.4
		s-3.2,25.7-6.4,35.4c-3.2,12.9-9.6,22.5-19.3,28.9c-9.6,9.6-16.1,12.9-28.9,16.1s-22.5,0-28.9-3.2c-6.4-3.2-12.9-9.6-16.1-16.1
		s-3.2-12.9-3.2-16.1c0-6.4,3.2-6.4,9.6-6.4c6.4,0,9.6,0,16.1-6.4c6.4-3.2,9.6-9.6,16.1-16.1c6.4-6.4,9.6-12.9,12.9-19.3
		c3.2-6.4,3.2-12.9,3.2-19.3s-3.2-9.6-6.4-16.1c-3.2-3.2-12.9-6.4-22.5-3.2c-12.9,3.2-25.7,9.6-38.6,19.3
		c-12.9,9.6-25.7,22.5-35.4,35.4c-9.6,12.9-22.5,28.9-28.9,48.2c-9.6,19.3-16.1,35.4-19.3,54.7c-3.2,19.3-6.4,38.6-3.2,54.7
		c0,16.1,3.2,28.9,9.6,41.8c6.4,12.9,12.9,19.3,22.5,25.7c9.6,6.4,19.3,6.4,32.2,3.2s28.9-9.6,41.8-16.1c12.9-9.6,28.9-22.5,45-45
		c3.2-6.4,6.4-9.6,9.6-12.9c3.2-3.2,6.4-3.2,6.4-3.2c3.2,0,3.2,0,3.2,3.2s-3.2,6.4-6.4,12.9c-6.4,12.9-16.1,25.7-25.7,38.6
		c-9.6,12.9-22.5,22.5-32.2,32.2c-12.9,9.6-22.5,19.3-35.4,25.7c-12.9,6.4-25.7,12.9-35.4,12.9c-16.1,3.2-32.2,3.2-45-3.2
		c-12.9-6.4-22.5-16.1-28.9-28.9c-6.4-12.9-12.9-28.9-12.9-48.2s0-41.8,6.4-64.3c6.4-22.5,16.1-48.2,25.7-70.7
		c9.6-22.5,25.7-41.8,38.6-61.1c16.1-19.3,32.2-32.2,48.2-45C2745.9,41.7,2765.2,35.2,2781.3,32z"/>
	<path fill="#FFFFFF" d="M2790.9,353.5c0-6.4,3.2-12.9,6.4-19.3c6.4-6.4,9.6-6.4,19.3-6.4c6.4,0,12.9,3.2,19.3,6.4
		c6.4,6.4,6.4,12.9,6.4,19.3s-3.2,12.9-6.4,19.3c-6.4,6.4-12.9,6.4-19.3,6.4c-6.4,0-12.9-3.2-19.3-6.4
		C2794.2,366.4,2790.9,360,2790.9,353.5z"/>
</g>
</svg>
