<?xml version="1.0" encoding="utf-8"?>
<!-- Generator: Adobe Illustrator 18.1.1, SVG Export Plug-In . SVG Version: 6.00 Build 0)  -->
<svg version="1.1" xmlns="http://www.w3.org/2000/svg" xmlns:xlink="http://www.w3.org/1999/xlink" x="0px" y="0px"
	 viewBox="0 0 246.7 293.8" enable-background="new 0 0 246.7 293.8" xml:space="preserve">
<g id="Layer_1_xA0_Image_1_" display="none">
	<rect x="0" y="116.9" display="inline" fill="#3B5D7A" width="246.7" height="198.9"/>
	<polygon display="inline" fill="#3B5D7A" points="0,112.9 10.9,107.4 16.9,107.4 19.4,98.9 27.4,98.9 35.4,95.9 43.4,88.4 
		45.9,84.4 53.9,79.9 57.9,76.9 66.4,79.9 71.4,82.9 74.9,87.9 77.4,87.9 83.4,91.4 83.4,94.9 97.4,101.9 105.4,101.9 109.4,100.4 
		120.4,94.9 123.4,91.9 129.9,87.9 137.4,84.4 152.4,72.9 159.4,78.4 166.9,89.4 174.9,83.9 181.4,84.4 185.9,89.4 194.4,92.9 
		203.4,90.4 213.4,92.9 222.4,96.9 231.4,104.9 235.9,106.4 238.4,106.4 249.4,104.9 253.4,112.9 253.4,122.4 -40.6,132.9 	"/>
	<path display="inline" fill="#193351" d="M323.9,101.9"/>
</g>
<g id="Layer_2">
	<g>
		<rect x="0" y="122.9" fill="#2B4C6D" width="248.9" height="174"/>
		<path fill="#2B4C6D" d="M0,111.9v31.5h248.9l-2.1-46.5l-16.9,7.5l-9.5,4.5l-1-3l-6-3l-9-6l-2.8-6h-7.2h-3.5l-6.5-0.5l-9.5,9
			l-13.5,2.5h-14l-11.5-2.5l-2-3l-10.5-4.5l-7.5-3v-3.5l-9.5-2.5h-6.5h-6.5c0,0-2.5,4-3.5,5.5s-9.5,6.5-9.5,6.5l-1.5,7l-8.5,6
			l-26,5.3H31.9h-9l-8-5.8l-6.5-1L0,111.9z"/>
	</g>
</g>
<g id="Layer_3" display="none">
	<g display="inline">
		<rect x="0" y="132.9" fill="#193351" width="246.7" height="146.9"/>
		<polygon fill="#193351" points="0,121.9 0,144.9 246.7,144.9 248.9,116.4 239.4,113.4 234.4,113.4 230.3,109.2 226.9,109.1 
			220.4,104.9 210.4,104.9 208.9,109.1 202.9,112.9 193.9,112.9 180.4,111 176.9,109.1 176.4,104.9 171.4,102.9 168.4,100.9 
			160.9,95.4 156.9,95.4 153.9,95.4 149.9,99.9 148.4,102.9 142.9,105.9 141.4,110.9 135.9,113.4 124.4,114.9 119.4,117.4 
			110.4,119.4 106.4,116.9 98.3,113.9 91.4,114.9 84.9,112.9 81.4,109.1 74.4,106.4 67.9,102.9 59.9,98.4 53.9,101.9 47.4,102.9 
			45.9,98.9 41.9,100.9 40.4,104.4 35.9,108.9 35.4,115.4 26.9,118.9 24.8,116.5 14.8,116.9 10.9,120.1 6.4,120.1 0,118.9 		"/>
	</g>
</g>
</svg>
