<?xml version="1.0" encoding="utf-8"?>
<!-- Generator: Adobe Illustrator 18.1.1, SVG Export Plug-In . SVG Version: 6.00 Build 0)  -->
<svg version="1.1" id="Layer_1" xmlns="http://www.w3.org/2000/svg" xmlns:xlink="http://www.w3.org/1999/xlink" x="0px" y="0px"
	 viewBox="-283 285 512 512" enable-background="new -283 285 512 512" xml:space="preserve">
<g id="icomoon-ignore">
</g>
<path fill="#FFFFFF" d="M138,579.7c-6.8-6.7-22-10.3-45-10.6c-15.6-0.2-34.4,1.2-54.1,4c-8.8-5.1-17.9-10.6-25.1-17.3
	c-19.2-18-35.3-42.9-45.3-70.3c0.7-2.6,1.2-4.8,1.7-7.1c0,0,10.8-61.5,8-82.3c-0.4-2.9-0.6-3.7-1.4-5.9l-0.9-2.4
	c-2.9-6.8-8.7-14-17.8-13.6l-5.5-0.2c-10.1,0-18.3,5.2-20.5,12.9c-6.6,24.2,0.2,60.4,12.5,107.4l-3.1,7.6
	c-8.8,21.4-19.8,43-29.5,62.1l-1.3,2.5c-10.2,20-19.5,37-27.9,51.4l-8.7,4.6c-0.6,0.3-15.5,8.2-19,10.3
	c-29.6,17.7-49.3,37.8-52.5,53.7c-1,5.1-0.3,11.6,5,14.6l8.4,4.2c3.6,1.8,7.5,2.8,11.4,2.8c21.1,0,45.6-26.3,79.3-85.2
	c39-12.7,83.3-23.2,122.2-29c29.6,16.7,66.1,28.3,89.1,28.3c4.1,0,7.6-0.4,10.5-1.1c4.4-1.2,8.1-3.7,10.4-7.1
	c4.5-6.7,5.4-16,4.2-25.4C142.7,585.6,140.4,582.1,138,579.7L138,579.7z M-177.2,692c3.8-10.5,19.1-31.3,41.6-49.8
	c1.4-1.1,4.9-4.4,8.1-7.5C-151,672.4-166.8,687.3-177.2,692z M-43.8,384.8c6.8,0,10.6,17.1,11,33.1s-3.4,27.3-8.1,35.6
	c-3.9-12.3-5.7-31.8-5.7-44.5C-46.6,409.1-46.9,384.8-43.8,384.8L-43.8,384.8L-43.8,384.8z M-83.6,603.7c4.7-8.5,9.6-17.4,14.7-26.8
	c12.2-23.2,20-41.3,25.7-56.2c11.5,20.8,25.7,38.6,42.5,52.8c2.1,1.8,4.3,3.6,6.6,5.3C-28.1,585.6-57.6,593.8-83.6,603.7
	L-83.6,603.7L-83.6,603.7z M131.5,601.8c-2.1,1.3-8,2-11.9,2c-12.4,0-27.6-5.6-49.1-14.8c8.2-0.6,15.8-0.9,22.6-0.9
	c12.4,0,16.1-0.1,28.2,3C133.4,594.3,133.5,600.5,131.5,601.8L131.5,601.8z"/>
<path fill="#FFFFFF" d="M175.9,399.5c-11.1-15.1-26.6-32.9-43.6-49.9s-34.7-32.5-49.9-43.6C56.7,287.2,44.2,285,37,285h-248
	c-22.1,0-40,17.9-40,40v432c0,22.1,17.9,40,40,40h368c22.1,0,40-17.9,40-40V445C197,437.8,194.8,425.3,175.9,399.5
	C175.9,399.5,175.9,399.5,175.9,399.5z M109.7,372.3c15.4,15.4,27.4,29.2,36.3,40.7H69v-77C80.5,344.9,94.3,357,109.7,372.3
	L109.7,372.3L109.7,372.3z M165,757c0,4.3-3.7,8-8,8h-368c-4.3,0-8-3.7-8-8V325c0-4.3,3.7-8,8-8c0,0,248,0,248,0v112
	c0,8.8,7.2,16,16,16h112V757z"/>
</svg>
